# xmcd
#
# Track frame offsets:
# 150
# 15773
# 35648
# 51655
# 67573
# 83773
# 99415
# 116050
# 134050
# 150083
# 170028
#
# Disc length: 2522 seconds
#
#
# Revision: 0
# Processed by: cddbd v1.5.1PL0 Copyright (c) Steve Scherf et al.
# Submitted via: FreeRIP 2.941 
#
DISCID=8409d80b
DTITLE=Bert Cattoni - I Still Want You
DYEAR=1997
DGENRE=Country
TTITLE0=Big Trouble
TTITLE1=I Can't Love You Anymore
TTITLE2=Till I'm Over You
TTITLE3=Take It Slow
TTITLE4=I Still Want You
TTITLE5=Kansas City
TTITLE6=I Didn't Count On You
TTITLE7=You Don't Know Me
TTITLE8=Wasted
TTITLE9=Steal My Heart
TTITLE10=Don't Come Around Here No More
EXTD=
EXTT0=
EXTT1=
EXTT2=
EXTT3=
EXTT4=
EXTT5=
EXTT6=
EXTT7=
EXTT8=
EXTT9=
EXTT10=
PLAYORDER=
